<?xml version="1.0" encoding="UTF-8"?>
<svg width="400" height="300" viewBox="0 0 400 300" xmlns="http://www.w3.org/2000/svg">
    <defs>
        <linearGradient id="bg" x1="0%" y1="0%" x2="100%" y2="100%">
            <stop offset="0%" style="stop-color:#0a0a0a"/>
            <stop offset="100%" style="stop-color:#121212"/>
        </linearGradient>
        <linearGradient id="accent" x1="0%" y1="0%" x2="100%" y2="100%">
            <stop offset="0%" style="stop-color:#ffb88c"/>
            <stop offset="100%" style="stop-color:#de6262"/>
        </linearGradient>
    </defs>
    <rect width="100%" height="100%" fill="url(#bg)"/>
    
    <!-- 玻璃拟态容器 -->
    <rect x="20" y="20" width="360" height="260" rx="10" fill="rgba(255,255,255,0.05)" stroke="rgba(255,255,255,0.1)"/>
    
    <!-- 工具栏 -->
    <rect x="30" y="30" width="340" height="40" rx="5" fill="rgba(255,255,255,0.03)"/>
    <circle cx="50" cy="50" r="10" fill="url(#accent)"/>
    <circle cx="80" cy="50" r="10" fill="url(#accent)" opacity="0.8"/>
    <circle cx="110" cy="50" r="10" fill="url(#accent)" opacity="0.6"/>
    
    <!-- 文档区域 -->
    <rect x="30" y="80" width="340" height="190" rx="5" fill="rgba(255,255,255,0.02)" stroke="rgba(255,255,255,0.05)"/>
    
    <!-- 文本内容示意 -->
    <rect x="40" y="100" width="320" height="10" rx="2" fill="#f8f9fa" opacity="0.1"/>
    <rect x="40" y="120" width="280" height="10" rx="2" fill="#f8f9fa" opacity="0.1"/>
    <rect x="40" y="140" width="300" height="10" rx="2" fill="#f8f9fa" opacity="0.1"/>
    
    <!-- 标注示意 -->
    <rect x="40" y="170" width="320" height="30" rx="2" fill="url(#accent)" opacity="0.1"/>
    <rect x="40" y="210" width="280" height="10" rx="2" fill="#f8f9fa" opacity="0.1"/>
    <rect x="40" y="230" width="300" height="10" rx="2" fill="#f8f9fa" opacity="0.1"/>
    
    <!-- 装饰元素 -->
    <circle cx="350" cy="40" r="3" fill="url(#accent)" opacity="0.8"/>
</svg>